<svg xmlns="http://www.w3.org/2000/svg" viewBox="0 0 32 32">
  <circle cx="16" cy="16" r="15" fill="#0a0a0c" stroke="#d4c5a9" stroke-width="1.5"/>
  <circle cx="16" cy="16" r="12.5" fill="none" stroke="#d4c5a9" stroke-width="0.6" opacity="0.5"/>
  <g fill="#d4c5a9" opacity="0.9">
    <ellipse cx="15.5" cy="11.5" rx="3.8" ry="4.5"/>
    <rect x="14" y="15" width="3.5" height="3" rx="0.5"/>
    <path d="M10.5 20.5 Q11 18 15.5 18 Q20 18 20.5 20.5 Q21 23 20 24 L11 24 Q10 23 10.5 20.5Z"/>
    <path d="M18.8 10.5 Q20 11.5 19.5 12.5 Q19 13 18.5 13" fill="none" stroke="#d4c5a9" stroke-width="0.5"/>
    <path d="M8 11 Q7.5 13.5 8.5 16 Q9 14 9.5 12Z" opacity="0.6"/>
    <path d="M7.5 14 Q6.5 16.5 7.5 19 Q8 17 8.5 15Z" opacity="0.6"/>
    <path d="M7.5 17.5 Q6 19.5 7 22 Q7.8 20 8.2 18Z" opacity="0.6"/>
    <path d="M23 11 Q23.5 13.5 22.5 16 Q22 14 21.5 12Z" opacity="0.6"/>
    <path d="M23.5 14 Q24.5 16.5 23.5 19 Q23 17 22.5 15Z" opacity="0.6"/>
    <path d="M23.5 17.5 Q25 19.5 24 22 Q23.2 20 22.8 18Z" opacity="0.6"/>
  </g>
</svg>
